<svg width="118" height="121" viewBox="0 0 118 121" fill="none" xmlns="http://www.w3.org/2000/svg">
<path d="M80.1304 115.568L80.7076 120.534C83.2603 120.238 85.1724 118.054 85.1297 115.485C85.0871 112.915 83.1036 110.796 80.5425 110.585L80.1304 115.568ZM20.2609 101.687L23.4471 97.8339L20.2609 101.687ZM5 2V-3H0V2H5ZM37.8696 2H42.8696V-3H37.8696V2ZM113 37.3322L117.999 37.4545L118 37.3934V37.3322H113ZM113 2H118V-3H113V2ZM77.7826 2V-3H72.7826V2H77.7826ZM80.1304 115.568L79.5533 110.601C72.8886 111.376 62.246 111.102 51.4079 109.076C40.4844 107.033 30.1169 103.349 23.4471 97.8339L20.2609 101.687L17.0747 105.541C25.6657 112.644 37.9938 116.741 49.5703 118.905C61.2323 121.085 72.8941 121.442 80.7076 120.534L80.1304 115.568ZM20.2609 101.687L23.4471 97.8339C16.4541 92.0516 13.2908 87.4021 11.7307 83.2314C10.1317 78.9566 10 74.682 10 68.8788H5H0C0 74.5859 0.0549889 80.5606 2.36451 86.7349C4.71299 93.0133 9.1801 99.0128 17.0747 105.541L20.2609 101.687ZM5 68.8788H10V2H5H0V68.8788H5ZM37.8696 2H32.8696V51.2127H37.8696H42.8696V2H37.8696ZM37.8696 51.2127H32.8696C32.8696 66.3338 47.5344 90.283 77.7826 90.283V85.283V80.283C53.5613 80.283 42.8696 61.3288 42.8696 51.2127H37.8696ZM113 37.3322H118V2H113H108V37.3322H113ZM77.7826 2H72.7826V85.283H77.7826H82.7826V2H77.7826ZM80.1304 115.568L80.5425 110.585C73.9536 110.04 60.0585 105.412 47.7554 97.5364C35.2294 89.5183 26.4348 79.4939 26.4348 68.9994H21.4348H16.4348C16.4348 85.004 29.3575 97.6329 42.3642 105.959C55.5937 114.427 71.0464 119.834 79.7184 120.551L80.1304 115.568ZM5 2V7H21.4348V2V-3H5V2ZM21.4348 2V7H37.8696V2V-3H21.4348V2ZM21.4348 68.9994H26.4348V2H21.4348H16.4348V68.9994H21.4348ZM93.0435 2V-3H77.7826V2V7H93.0435V2ZM113 2V-3H94.2174V2V7H113V2ZM94.2174 2V-3H93.0435V2V7H94.2174V2ZM77.7826 85.283V90.283C85.3489 90.283 91.751 88.1247 97.0353 84.5194L94.2174 80.3892L91.3994 76.2589C87.7747 78.732 83.3363 80.283 77.7826 80.283V85.283ZM94.2174 80.3892L97.0353 84.5194C105.257 78.9103 110.372 70.0929 113.465 61.5153C116.576 52.8902 117.839 43.9794 117.999 37.4545L113 37.3322L108.001 37.2098C107.864 42.8186 106.755 50.647 104.059 58.1224C101.345 65.6453 97.2174 72.2895 91.3994 76.2589L94.2174 80.3892ZM94.2174 2H89.2174V80.3892H94.2174H99.2174V2H94.2174Z" fill="url(#paint0_linear_498_69)"/>
<defs>
<linearGradient id="paint0_linear_498_69" x1="59" y1="2" x2="59" y2="117.458" gradientUnits="userSpaceOnUse">
<stop stop-color="#FF0000"/>
<stop offset="1" stop-color="#9C2B2B"/>
</linearGradient>
</defs>
</svg>
